<?xml version="1.0" encoding="utf-8"?>
<!-- Generator: Adobe Illustrator 16.0.0, SVG Export Plug-In . SVG Version: 6.00 Build 0)  -->
<!DOCTYPE svg PUBLIC "-//W3C//DTD SVG 1.1//EN" "http://www.w3.org/Graphics/SVG/1.1/DTD/svg11.dtd">
<svg version="1.1"
	 id="svg101" xmlns:sodipodi="http://sodipodi.sourceforge.net/DTD/sodipodi-0.dtd" xmlns:inkscape="http://www.inkscape.org/namespaces/inkscape" xmlns:dc="http://purl.org/dc/elements/1.1/" xmlns:cc="http://creativecommons.org/ns#" xmlns:rdf="http://www.w3.org/1999/02/22-rdf-syntax-ns#" xmlns:svg="http://www.w3.org/2000/svg" sodipodi:docname="Portal 2 Symbol.svg" inkscape:version="0.92.1 r15371"
	 xmlns="http://www.w3.org/2000/svg" xmlns:xlink="http://www.w3.org/1999/xlink" x="0px" y="0px" width="808.775px"
	 height="1000px" viewBox="-333.695 -414.191 808.775 1000" enable-background="new -333.695 -414.191 808.775 1000"
	 xml:space="preserve">
<sodipodi:namedview  showgrid="false" inkscape:cy="28.909569" inkscape:cx="28.252106" inkscape:zoom="1.4142136" borderopacity="1.0" bordercolor="#666666" pagecolor="#ffffff" id="base" inkscape:window-maximized="1" inkscape:window-y="-8" inkscape:window-x="-8" inkscape:window-height="987" inkscape:window-width="1680" inkscape:current-layer="layer1" inkscape:document-units="mm" inkscape:pageshadow="2" inkscape:pageopacity="0.0">
	</sodipodi:namedview>
<g>
	<rect x="124.885" y="-411.296" fill="#119BCF" width="9.187" height="994.385"/>
	<g id="g48" transform="matrix(0.26458333,0,0,0.26458333,-61.24131,131.79989)">
		<g id="g46">
			<path id="path42" inkscape:connector-curvature="0" d="M-1005,745.228l1.24-267.184l700.708-679.21l0.729-0.576
				c70.796-58.854,123.429-111.808,156.529-157.517c31.115-42.983,46.886-87.413,46.886-132.127
				c0-64.11-20.452-113.89-62.486-152.194c-42.141-38.369-98.982-57.817-168.883-57.817c-67.378,0-122.661,18.733-168.926,57.175
				c-44.919,37.29-66.738,92.765-66.738,169.568v24.619h-436.067v-24.619c0-122.385,29.897-231.369,88.961-323.931
				c58.937-92.403,140.847-164.257,243.486-213.557c101.804-48.85,215.917-73.586,339.305-73.586
				c93.342,0,181.342,13.592,261.563,40.388c80.736,26.97,152.217,66.589,212.479,117.705
				c60.733,51.522,108.619,114.98,142.406,188.607c33.85,73.553,50.966,154.972,50.966,242.012
				c0,73.522-16.84,142.939-50.09,206.258c-32.482,61.899-77.466,122.569-133.625,180.262C98.269-53.781,29.889,9.006-49.756,76.148
				l-333.09,284.771h759.221v384.35H-1005V745.228z"/>
			<path id="path44" inkscape:connector-curvature="0" d="M-330.232-1061.11c91.163,0,175.763,13.066,253.762,39.128
				C1.594-995.9,69.699-958.237,127.889-908.841c58.168,49.333,103.515,109.306,135.93,180.104
				c32.503,70.732,48.767,148.016,48.767,231.753c0,69.814-15.749,134.808-47.27,194.825
				c-31.5,60.05-74.644,118.227-129.456,174.567C81.11-71.306,13.946-9.63-65.55,57.383l-383.925,328.155h801.253V720.65H-980.252
				l1.068-232.135l692.609-671.293c72.721-60.485,126.295-114.508,160.698-162.003c34.405-47.46,51.629-96.323,51.629-146.573
				c0-70.785-23.506-127.554-70.517-170.411c-47.013-42.762-108.857-64.249-185.466-64.249c-72.68,0-134.245,20.954-184.679,62.87
				c-50.411,41.905-75.604,104.731-75.604,188.49h-386.832c0-118.24,28.38-221.752,85.113-310.725
				c56.715-88.896,134.544-157.077,233.399-204.569C-559.977-1037.403-450.394-1061.11-330.232-1061.11 M-330.232-1110.345
				c-127.087,0-244.81,25.589-349.948,76.032c-106.871,51.308-192.177,126.177-253.594,222.5
				c-61.608,96.613-92.807,210.054-92.807,337.181v49.234h49.235h386.832h49.235v-49.234c0-69.013,18.911-118.28,57.826-150.633
				c41.693-34.643,91.803-51.513,153.198-51.513c64.472,0,114.283,16.816,152.344,51.437c36.585,33.37,54.386,77.196,54.386,133.987
				c0,39.96-13.848,78.425-42.291,117.669c-31.82,44.033-83.085,95.501-152.257,153.029l-1.454,1.198l-1.347,1.281l-692.609,671.326
				l-14.873,14.424l-0.089,20.751l-1.045,232.116l-0.258,49.492h49.494H351.819h49.237v-49.237V385.578v-49.237h-49.237h-667.885
				L-33.518,94.865C46.492,27.423,115.452-35.98,171.204-93.23c57.782-59.446,104.177-122.03,137.77-186.02
				c35.132-66.865,52.932-140.11,52.932-217.713c0-90.6-17.909-175.468-53.253-252.323
				c-35.217-76.919-85.307-143.24-148.795-197.091c-62.634-53.179-136.894-94.317-220.577-122.266
				C-143.59-1096.318-234.219-1110.345-330.232-1110.345L-330.232-1110.345z"/>
		</g>
	</g>
	<g id="g1177" transform="matrix(0.70563895,0,0,0.70563895,5.9471657,-0.60526967)" inkscape:label="Clip">
		<g id="g1165">
			<g id="g1163" inkscape:label="Clip">
				<g id="g71" transform="matrix(0.37331822,0,0,0.37331822,-37.620101,209.6563)">
					<g>
						<path id="path65_1_" inkscape:connector-curvature="0" fill="#119BCF" d="M1647.318-1328.083
							c0,213.032-172.697,385.705-385.701,385.705c-213.02,0-385.713-172.673-385.713-385.705
							c0-213.005,172.693-385.696,385.713-385.696C1474.622-1713.779,1647.318-1541.088,1647.318-1328.083"/>
						<path fill="#119BCF" d="M1261.617-931.388c-218.743,0-396.704-177.958-396.704-396.695
							c0-218.734,177.961-396.686,396.704-396.686c218.736,0,396.693,177.952,396.693,396.686
							C1658.31-1109.346,1480.353-931.388,1261.617-931.388z M1261.617-1702.79c-206.625,0-374.725,168.093-374.725,374.706
							c0,206.617,168.1,374.715,374.725,374.715c206.617,0,374.71-168.098,374.71-374.715
							C1636.327-1534.697,1468.234-1702.79,1261.617-1702.79z"/>
					</g>
					<g>
						<path id="path67_1_" inkscape:connector-curvature="0" fill="#119BCF" d="M623.107-1251.032l666.565,507.865
							c0,0,23.244,12.76,26.851,66.827l104.549,464.891l439.611,324.334c0,0,71.518,234.08-170.098,210.769L1237.28-13.273
							c0,0-27.792-21.231-46.873-82.895l-86.476-374.769L617.424,102.067l443.214,609.019c0,0,97.335,133.353-10.773,245.068
							l-450.476,439.659V938.148l104.508-86.521c0,0,28.827-21.609,0-54.02L599.389,667.865v-1917.203l23.718-1.705"/>
						<path fill="#119BCF" d="M588.401,1421.893V932.981l108.905-90.146l0,0c-0.004,0,7.514-5.991,8.337-15.136
							c0.63-6.981-2.721-14.651-9.957-22.784l-0.349-0.411L588.401,671.739v-1931.303l33.92-2.439l0.786,10.971l6.658-8.741
							l666.102,507.51c5.409,3.407,27.755,20.627,31.563,74.33l103.462,460.078l439.24,324.056l1.057,3.474
							c1.379,4.5,33.06,110.988-21.034,177.164c-31.792,38.906-85.872,54.947-160.623,47.755l-3.047-0.293L1230.725-4.454
							c-1.364-1.042-30.929-24.189-50.817-88.467l-0.211-0.779l-81.557-353.442L631.396,102.586l438.124,602.031
							c1.02,1.398,101.476,142.169-11.755,259.181L588.401,1421.893z M610.381,943.312v426.421l431.807-421.442
							c100.293-103.648,10.491-229.468,9.572-230.728L610.381,111.064v552.927l101.913,126.521
							c11.429,12.93,16.541,26.247,15.199,39.585c-1.779,17.687-14.324,28.245-16.745,30.124L610.381,943.312z M1694.666,312.992
							c65.386,5.791,111.956-7.677,138.425-40.004c41.787-51.036,22.695-135.618,18.009-153.516L1411.248-205.04l-0.897-3.996
							l-104.734-465.726l-0.059-0.849c-3.07-46.069-21.257-57.959-21.438-58.074l-1.105-0.741l-663.273-505.355l-9.361,0.671V93.385
							l499.336-588.119l91.307,395.696c17.579,56.545,42.743,76.886,42.995,77.083L1694.666,312.992z"/>
					</g>
					<g>
						<path id="path69_1_" inkscape:connector-curvature="0" fill="#119BCF" d="M549.535,1653.5h69.709v-3774.128h-69.709V1653.5z"
							/>
						<path fill="#119BCF" d="M630.232,1664.488h-91.689v-3796.106h91.689V1664.488z M560.523,1642.508h47.729v-3752.146h-47.729
							V1642.508z"/>
					</g>
				</g>
			</g>
		</g>
	</g>
</g>
</svg>
